<?xml version="1.0" encoding="UTF-8" standalone="no"?>
<svg
   xmlns:dc="http://purl.org/dc/elements/1.1/"
   xmlns:cc="http://creativecommons.org/ns#"
   xmlns:rdf="http://www.w3.org/1999/02/22-rdf-syntax-ns#"
   xmlns:svg="http://www.w3.org/2000/svg"
   xmlns="http://www.w3.org/2000/svg"
   xmlns:sodipodi="http://sodipodi.sourceforge.net/DTD/sodipodi-0.dtd"
   xmlns:inkscape="http://www.inkscape.org/namespaces/inkscape"
   width="100"
   height="100"
   viewBox="0 0 100 100"
   version="1.1"
   id="svg10"
   sodipodi:docname="graph.svg"
   inkscape:version="1.0 (4035a4fb49, 2020-05-01)">
  <metadata
     id="metadata16">
    <rdf:RDF>
      <cc:Work
         rdf:about="">
        <dc:format>image/svg+xml</dc:format>
        <dc:type
           rdf:resource="http://purl.org/dc/dcmitype/StillImage" />
      </cc:Work>
    </rdf:RDF>
  </metadata>
  <defs
     id="defs14" />
  <sodipodi:namedview
     inkscape:document-rotation="0"
     pagecolor="#ffffff"
     bordercolor="#666666"
     borderopacity="1"
     objecttolerance="10"
     gridtolerance="10"
     guidetolerance="10"
     inkscape:pageopacity="0"
     inkscape:pageshadow="2"
     inkscape:window-width="1366"
     inkscape:window-height="706"
     id="namedview12"
     showgrid="false"
     inkscape:zoom="3.09"
     inkscape:cx="57.234516"
     inkscape:cy="48.047405"
     inkscape:window-x="0"
     inkscape:window-y="34"
     inkscape:window-maximized="1"
     inkscape:current-layer="g6" />
  <g
     fill-rule="evenodd"
     id="g8">
    <g
       fill="#000000"
       id="g6">
      <rect
         style="fill:#212121;fill-opacity:1;stroke:none;stroke-width:4.07367;stroke-opacity:1;paint-order:stroke fill markers"
         id="rect841"
         width="100.36166"
         height="100.27798"
         x="-0.33431807"
         y="-0.13883509" />
      <path
         opacity="0.5"
         d="m 96,95 h 4 v 1 h -4 v 4 h -1 v -4 h -9 v 4 h -1 v -4 h -9 v 4 h -1 v -4 h -9 v 4 h -1 v -4 h -9 v 4 h -1 v -4 h -9 v 4 h -1 v -4 h -9 v 4 h -1 v -4 h -9 v 4 h -1 v -4 h -9 v 4 H 15 V 96 H 0 V 95 H 15 V 86 H 0 V 85 H 15 V 76 H 0 V 75 H 15 V 66 H 0 V 65 H 15 V 56 H 0 V 55 H 15 V 46 H 0 V 45 H 15 V 36 H 0 V 35 H 15 V 26 H 0 V 25 H 15 V 16 H 0 V 15 H 15 V 0 h 1 v 15 h 9 V 0 h 1 v 15 h 9 V 0 h 1 v 15 h 9 V 0 h 1 v 15 h 9 V 0 h 1 v 15 h 9 V 0 h 1 v 15 h 9 V 0 h 1 v 15 h 9 V 0 h 1 v 15 h 9 V 0 h 1 v 15 h 4 v 1 h -4 v 9 h 4 v 1 h -4 v 9 h 4 v 1 h -4 v 9 h 4 v 1 h -4 v 9 h 4 v 1 h -4 v 9 h 4 v 1 h -4 v 9 h 4 v 1 h -4 v 9 h 4 v 1 h -4 z m -1,0 v -9 h -9 v 9 z m -10,0 v -9 h -9 v 9 z m -10,0 v -9 h -9 v 9 z m -10,0 v -9 h -9 v 9 z m -10,0 v -9 h -9 v 9 z m -10,0 v -9 h -9 v 9 z m -10,0 v -9 h -9 v 9 z m -10,0 v -9 h -9 v 9 z M 16,85 h 9 v -9 h -9 z m 10,0 h 9 v -9 h -9 z m 10,0 h 9 v -9 h -9 z m 10,0 h 9 v -9 h -9 z m 10,0 h 9 v -9 h -9 z m 10,0 h 9 v -9 h -9 z m 10,0 h 9 v -9 h -9 z m 10,0 h 9 v -9 h -9 z m 9,-10 v -9 h -9 v 9 z m -10,0 v -9 h -9 v 9 z m -10,0 v -9 h -9 v 9 z m -10,0 v -9 h -9 v 9 z m -10,0 v -9 h -9 v 9 z m -10,0 v -9 h -9 v 9 z m -10,0 v -9 h -9 v 9 z m -10,0 v -9 h -9 v 9 z M 16,65 h 9 v -9 h -9 z m 10,0 h 9 v -9 h -9 z m 10,0 h 9 v -9 h -9 z m 10,0 h 9 v -9 h -9 z m 10,0 h 9 v -9 h -9 z m 10,0 h 9 v -9 h -9 z m 10,0 h 9 v -9 h -9 z m 10,0 h 9 v -9 h -9 z m 9,-10 v -9 h -9 v 9 z m -10,0 v -9 h -9 v 9 z m -10,0 v -9 h -9 v 9 z m -10,0 v -9 h -9 v 9 z m -10,0 v -9 h -9 v 9 z m -10,0 v -9 h -9 v 9 z m -10,0 v -9 h -9 v 9 z m -10,0 v -9 h -9 v 9 z M 16,45 h 9 v -9 h -9 z m 10,0 h 9 v -9 h -9 z m 10,0 h 9 v -9 h -9 z m 10,0 h 9 v -9 h -9 z m 10,0 h 9 v -9 h -9 z m 10,0 h 9 v -9 h -9 z m 10,0 h 9 v -9 h -9 z m 10,0 h 9 v -9 h -9 z m 9,-10 v -9 h -9 v 9 z m -10,0 v -9 h -9 v 9 z m -10,0 v -9 h -9 v 9 z m -10,0 v -9 h -9 v 9 z m -10,0 v -9 h -9 v 9 z m -10,0 v -9 h -9 v 9 z m -10,0 v -9 h -9 v 9 z m -10,0 v -9 h -9 v 9 z M 16,25 h 9 v -9 h -9 z m 10,0 h 9 v -9 h -9 z m 10,0 h 9 v -9 h -9 z m 10,0 h 9 v -9 h -9 z m 10,0 h 9 v -9 h -9 z m 10,0 h 9 v -9 h -9 z m 10,0 h 9 v -9 h -9 z m 10,0 h 9 v -9 h -9 z"
         id="path2"
         style="display:inline;fill:#2e2e2e;fill-opacity:1;stroke:#2e2e2e;stroke-width:0.5;stroke-miterlimit:4;stroke-dasharray:none;stroke-opacity:1" />
      <path
         d="M 6,5 V 0 H 5 V 5 H 0 v 1 h 5 v 94 H 6 V 6 h 94 V 5 Z"
         id="path4"
         style="display:inline;stroke:#2e2e2e;stroke-opacity:1" />
    </g>
  </g>
</svg>
