<svg id="Layer_1" data-name="Layer 1" xmlns="http://www.w3.org/2000/svg" viewBox="0 0 1024 1024"><defs><style>.cls-1{fill:#fff;}</style></defs><title>Artboard 1</title><g id="katman_2" data-name="katman 2"><g id="katman_3" data-name="katman 3"><path class="cls-1" d="M976.81,296.75c-3.2-7-6.55-14-10.32-21a516.42,516.42,0,0,0-57.07-86.93C597.17,335.32,225.36,380.9,13.72,395.08a509.24,509.24,0,0,0,22.4,305.77C310.75,611.34,749.89,454.07,974.8,298.66Z"/><path class="cls-1" d="M275.77,58A509.89,509.89,0,0,0,53.92,283.29c127-39.14,411.89-136.54,583.59-267.66A510.62,510.62,0,0,0,275.77,58Z"/><path class="cls-1" d="M963,753.55a1533.09,1533.09,0,0,0-522.2,264.83h0v.56A511.76,511.76,0,0,0,963.6,753.81Z"/><path class="cls-1" d="M1019.63,448.14,258,955.26a4.31,4.31,0,0,0,0,.88,516.34,516.34,0,0,0,100.72,44.34h-.37C472.15,898.23,705,717.3,1008.44,629.23l2.16-.77A511.83,511.83,0,0,0,1020,448.4Z"/><path class="cls-1" d="M184.24,899.88C642.72,637.53,356,648.31,86,794.23l-.47.57A508.34,508.34,0,0,0,180,901.48,31.14,31.14,0,0,1,184.24,899.88Z"/></g></g></svg>