<?xml version="1.0" encoding="UTF-8" standalone="no"?>
<svg
   xmlns:dc="http://purl.org/dc/elements/1.1/"
   xmlns:cc="http://creativecommons.org/ns#"
   xmlns:rdf="http://www.w3.org/1999/02/22-rdf-syntax-ns#"
   xmlns:svg="http://www.w3.org/2000/svg"
   xmlns="http://www.w3.org/2000/svg"
   xmlns:sodipodi="http://sodipodi.sourceforge.net/DTD/sodipodi-0.dtd"
   xmlns:inkscape="http://www.inkscape.org/namespaces/inkscape"
   viewBox="0 0 48 48"
   version="1.1"
   id="svg4"
   sodipodi:docname="inter.svg"
   inkscape:version="1.0 (4035a4fb49, 2020-05-01)">
  <metadata
     id="metadata10">
    <rdf:RDF>
      <cc:Work
         rdf:about="">
        <dc:format>image/svg+xml</dc:format>
        <dc:type
           rdf:resource="http://purl.org/dc/dcmitype/StillImage" />
      </cc:Work>
    </rdf:RDF>
  </metadata>
  <defs
     id="defs8">
    <filter
       height="1.0059886"
       y="-0.002994293"
       width="1.0060115"
       x="-0.0030057288"
       id="filter847"
       style="color-interpolation-filters:sRGB"
       inkscape:collect="always">
      <feGaussianBlur
         id="feGaussianBlur849"
         stdDeviation="0.060339906"
         inkscape:collect="always" />
    </filter>
  </defs>
  <sodipodi:namedview
     inkscape:document-rotation="0"
     pagecolor="#ffffff"
     bordercolor="#666666"
     borderopacity="1"
     objecttolerance="10"
     gridtolerance="10"
     guidetolerance="10"
     inkscape:pageopacity="0"
     inkscape:pageshadow="2"
     inkscape:window-width="1366"
     inkscape:window-height="692"
     id="namedview6"
     showgrid="false"
     inkscape:zoom="7.2696589"
     inkscape:cx="34.064527"
     inkscape:cy="32.26552"
     inkscape:window-x="0"
     inkscape:window-y="24"
     inkscape:window-maximized="1"
     inkscape:current-layer="svg4" />
  <rect
     transform="matrix(1.0263675,0,0,1.0194604,-0.6328207,-0.46704989)"
     style="opacity:1;fill:#212121;fill-opacity:1;stroke-width:0.980729;filter:url(#filter847)"
     id="rect835"
     width="48.17992"
     height="48.36393"
     x="-0.089960098"
     y="-0.18196487" />
  <path
     fill="#000000"
     fill-rule="evenodd"
     d="M5 3.59L1.46.05.05 1.46 3.59 5 .05 8.54l1.41 1.41L5 6.41l3.54 3.54 1.41-1.41L6.41 5l3.54-3.54L8.54.05 5 3.59zM17 2h24v2H17V2zm0 4h24v2H17V6zM2 17h2v24H2V17zm4 0h2v24H6V17z"
     id="path2"
     style="fill:#ff4d0d;fill-opacity:1;opacity:0.45" />
</svg>
